<svg width="96" height="96" viewBox="0 0 96 96" fill="none" xmlns="http://www.w3.org/2000/svg">
<path d="M15.9625 1.33142C12.1012 2.72948 11.4355 3.12893 7.64074 6.59079C4.44518 9.65321 2.44795 12.7156 0.983319 17.0429C-0.0152947 20.1054 -0.0818691 23.6338 0.0512794 48.9986L0.251002 77.5589L2.11508 81.4202C4.57833 86.3467 9.43825 91.2067 14.3647 93.6699C18.0929 95.4674 18.5589 95.534 30.742 95.7337L43.1914 96V92.7379C43.1248 86.7462 37.7323 78.5575 33.7379 78.5575C27.0139 78.5575 23.6186 70.9015 28.4119 66.441C30.8086 64.1775 33.3384 63.6449 36.0014 64.8433C38.5978 65.9084 48.8502 76.294 51.4466 80.4216C53.4438 83.6172 55.1748 89.6089 55.1748 93.4036V96L66.3592 95.7337C76.9445 95.534 77.6769 95.4008 81.2719 93.6699C86.1984 91.2732 91.8572 85.215 93.921 80.0888C95.4522 76.2274 95.4522 76.0277 95.4522 48.2663C95.4522 22.8349 95.319 19.9722 94.2538 16.7767C92.6561 12.2496 88.7282 7.05681 84.7337 4.26069C78.9418 0.133089 77.9432 -6.31202e-05 47.2524 -6.31202e-05C21.6213 0.0665111 19.2912 0.133088 15.9625 1.33142ZM54.3759 10.4521C56.5062 13.2482 55.5076 14.9126 45.5881 25.8307L36.0014 36.2829L56.5728 56.9209C78.8752 79.3564 78.9418 79.4896 75.4799 82.8849C74.6144 83.8169 73.2164 84.5492 72.3509 84.5492C71.2857 84.5492 65.0943 78.7573 50.1817 63.9112L29.4771 43.2066L25.5492 45.6033C23.4188 46.8682 21.4216 47.9334 21.0887 47.9334C20.8224 47.9334 20.5561 55.3897 20.5561 64.5104C20.5561 79.5562 20.423 81.2205 19.3578 82.552C17.6935 84.5492 14.0319 84.5492 12.4341 82.4854C11.3023 81.1539 11.2358 78.5576 11.2358 47.2677C11.2358 14.38 11.3023 13.5145 12.5672 12.3162C14.3647 10.6518 17.8932 10.8515 19.3578 12.7156C20.423 13.914 20.5561 15.6449 20.5561 25.6976V37.3481L21.9542 36.5492C24.484 35.2177 29.1442 30.5575 37.6657 20.9708C42.1928 15.8446 46.853 10.9847 48.0513 10.1192C50.3814 8.45487 52.9112 8.58802 54.3759 10.4521ZM58.7698 21.7031C59.6352 22.5686 59.835 24.6324 59.835 33.6199C59.835 44.0055 59.9015 44.6047 61.2996 45.5367C62.2982 46.269 63.0305 46.3356 63.9626 45.8696C65.0277 45.2704 65.1609 44.2718 65.1609 34.4188C65.1609 25.6976 65.3606 23.3009 66.2261 22.1026C67.3579 20.4382 69.0222 20.2385 70.8197 21.5034C71.8849 22.3689 72.018 23.4341 71.8849 32.821C71.8183 38.9459 72.018 43.7392 72.4175 44.5381C73.4827 46.4688 75.0139 46.7351 76.4785 45.2704C77.6769 44.0721 77.81 43.0069 77.81 33.3536C77.81 24.5658 78.0097 22.5686 78.8752 21.7031C80.2067 20.3051 81.7379 20.3717 83.2691 21.7697C84.3343 22.7683 84.4674 24.0998 84.4674 36.1498C84.4674 52.1941 83.9348 53.8585 78.0763 57.6532C74.2816 60.1165 72.4841 62.6463 72.4841 65.7087C72.4841 67.3731 71.6852 66.7739 63.8294 58.9181C59.1026 54.1914 54.7087 49.3315 54.1761 48.1997C52.6449 44.9376 52.7115 23.5672 54.3093 21.8363C55.6408 20.3717 57.3717 20.3051 58.7698 21.7031Z" fill="#FF4B3A"/>
</svg>
