<svg width="94" height="94" viewBox="0 0 94 94" fill="none" xmlns="http://www.w3.org/2000/svg">
<rect width="94" height="94" rx="23" fill="#FF4B3A"/>
<path d="M45.2436 25.7418C55.1318 14.9092 56.1273 13.2579 54.0036 10.4837C52.5436 8.63419 50.0218 8.50208 47.6991 10.1534C46.5045 11.0121 41.8591 15.8339 37.3464 20.9199C28.8518 30.4315 24.2064 35.0552 21.6845 36.3762L20.2909 37.1688V25.6097C20.2909 15.6357 20.1582 13.9184 19.0964 12.7294C17.6364 10.88 14.1191 10.6818 12.3273 12.3331C11.0664 13.5221 11 14.3808 11 47.0106L12.1945 81.9524C13.7873 84 17.4373 84 19.0964 82.0184C20.1582 80.6974 20.2909 79.0461 20.2909 64.1182L20.8218 47.6712C21.1536 47.6712 23.1445 46.6143 25.2682 45.3593L29.1836 42.9814L49.8227 63.5237L71.9218 84C72.7845 84 74.1782 83.2734 75.0409 82.3487C75.0409 82.3487 76.2129 81.0237 76.5561 79.9825C76.9206 78.8767 76.7076 77.0061 76.7076 77.0061L56.1936 56.5882L35.6873 36.112L45.2436 25.7418Z" fill="white"/>
<path d="M59.4455 33.4699C59.4455 24.5528 59.2464 22.5052 58.3836 21.6465C56.99 20.2594 55.2645 20.3255 53.9373 21.7786C52.3445 23.496 52.2782 44.6988 53.8045 47.9354C54.3355 49.0583 58.7155 53.8801 63.4273 58.5698C71.2582 66.364 72.0545 66.9585 72.0545 65.3072C72.0545 62.2688 73.8464 59.7588 77.6291 57.3148C83.4691 53.5498 84 51.8985 84 35.9799C84 24.0244 83.8673 22.7034 82.8055 21.7126C81.2791 20.3255 79.7527 20.2594 78.4255 21.6465C77.5627 22.5052 77.3636 24.4868 77.3636 33.2057C77.3636 42.7833 77.2309 43.8401 76.0364 45.0291C74.5764 46.4822 73.05 46.218 71.9882 44.3025C71.59 43.5099 71.3909 38.7541 71.4573 32.6773C71.59 23.3639 71.4573 22.307 70.3955 21.4484C68.6036 20.1934 66.9445 20.3915 65.8164 22.0428C64.9536 23.2318 64.7546 25.6097 64.7546 34.2625C64.7546 44.0383 64.6218 45.0291 63.56 45.6235C62.6309 46.0859 61.9009 46.0199 60.9055 45.2933C59.5118 44.3685 59.4455 43.7741 59.4455 33.4699Z" fill="white"/>
<path d="M46.7808 90.4072V94H60V91.1404C60 86.9611 58.0906 80.3621 55.8874 76.8426C53.0232 72.2967 41.7135 60.8584 38.8493 59.6853C35.9117 58.3655 33.121 58.9521 30.4772 61.445C25.1895 66.3576 28.9349 74.7896 36.3524 74.7896C40.7588 74.7896 46.7074 83.8082 46.7808 90.4072Z" fill="white"/>
</svg>
